<svg width="20" height="20" viewBox="0 0 20 20" fill="none" xmlns="http://www.w3.org/2000/svg">
<g clip-path="url(#clip0_189_1063)">
<path d="M19.1912 12.3259C19.1076 12.2424 19.002 12.1844 18.8867 12.1585C18.7715 12.1326 18.6512 12.14 18.54 12.1796C17.0446 12.7128 15.4286 12.8107 13.8797 12.4619C12.3309 12.1132 10.9128 11.3321 9.79022 10.2095C8.66764 9.08685 7.88665 7.66871 7.538 6.11986C7.18934 4.571 7.28734 2.955 7.82059 1.45963C7.86022 1.34833 7.86748 1.22808 7.84155 1.11282C7.81562 0.997558 7.75755 0.892008 7.67408 0.808405C7.59061 0.724801 7.48515 0.666568 7.36993 0.640457C7.25471 0.614345 7.13445 0.621425 7.02309 0.660875C5.6749 1.13696 4.45143 1.91095 3.44372 2.92525C1.63723 4.7331 0.622686 7.1844 0.623169 9.74012C0.623652 12.2958 1.63912 14.7468 3.44629 16.5539C5.25346 18.3611 7.70437 19.3766 10.2601 19.377C12.8158 19.3775 15.2671 18.363 17.075 16.5565C18.0894 15.5486 18.8634 14.3249 19.3393 12.9765C19.3786 12.8651 19.3856 12.7449 19.3594 12.6298C19.3332 12.5146 19.2749 12.4093 19.1912 12.3259ZM16.1912 15.6728C15.339 16.5226 14.3139 17.1791 13.1855 17.5977C12.0571 18.0163 10.8518 18.1872 9.65153 18.0987C8.45124 18.0103 7.28403 17.6647 6.22915 17.0852C5.17428 16.5058 4.25643 15.7062 3.53794 14.7406C2.81944 13.7751 2.31713 12.6662 2.06509 11.4894C1.81305 10.3125 1.8172 9.09521 2.07725 7.9201C2.3373 6.74499 2.84716 5.6396 3.57221 4.67897C4.29727 3.71834 5.22054 2.92498 6.27934 2.35275C5.9659 3.91321 6.04141 5.52684 6.49921 7.0512C6.95701 8.57557 7.78302 9.96381 8.90434 11.0934C10.0338 12.2149 11.422 13.041 12.9464 13.4988C14.4708 13.9566 16.0845 14.032 17.645 13.7184C17.2585 14.4374 16.7687 15.0959 16.1912 15.6728Z" fill="black"/>
</g>
<defs>
<clipPath id="clip0_189_1063">
<rect width="20" height="20" fill="white"/>
</clipPath>
</defs>
</svg>
